<svg xmlns="http://www.w3.org/2000/svg" width="26" height="24">
    <path fill="#EF5B70" fill-rule="evenodd" d="M25.918 6.26l-4.392 10.272c-.161.359-.497.587-.882.587H8.575c-.433 0-.818-.294-.93-.717L3.718 1.956H.961C.433 1.956 0 1.516 0 .978s.433-.979.961-.979H4.44c.432 0 .817.294.929.718l3.927 14.445h10.707l3.558-8.315H11.7c-.529 0-.961-.44-.961-.978s.432-.978.961-.978h13.336c.321 0 .625.163.801.44.177.277.209.62.081.929zM7.661 19.565c1.202 0 2.18.995 2.18 2.217 0 1.223-.978 2.217-2.18 2.217-1.202 0-2.18-.994-2.18-2.217s.978-2.217 2.18-2.217zm13.48 0c1.202-.082 2.244.847 2.324 2.054.032.603-.144 1.174-.529 1.614-.384.457-.913.718-1.49.766h-.161c-1.138 0-2.083-.913-2.164-2.07-.08-1.207.818-2.283 2.02-2.364z"/>
</svg>
